<svg width="570" height="471" viewBox="0 0 570 471" fill="none" xmlns="http://www.w3.org/2000/svg">
<path d="M38.942 313.231H116.227C121.351 313.231 126.266 315.44 129.889 319.371C133.512 323.303 135.548 328.635 135.548 334.195V439.013C135.548 444.573 133.512 449.905 129.889 453.836C126.266 457.768 121.351 459.976 116.227 459.976H38.942C33.8177 459.976 28.9033 457.768 25.2799 453.836C21.6564 449.905 19.6208 444.573 19.6208 439.013H29.2814C29.2814 441.793 30.2992 444.459 32.111 446.425C33.9227 448.39 36.3799 449.495 38.942 449.495H116.227C118.789 449.495 121.246 448.39 123.058 446.425C124.87 444.459 125.887 441.793 125.887 439.013V334.195C125.887 331.415 124.87 328.749 123.058 326.783C121.246 324.817 118.789 323.713 116.227 323.713H38.942C36.3799 323.713 33.9227 324.817 32.111 326.783C30.2992 328.749 29.2814 331.415 29.2814 334.195H19.6208C19.6208 328.635 21.6564 323.303 25.2799 319.371C28.9033 315.44 33.8177 313.231 38.942 313.231V313.231Z" fill="#FFB74D"/>
<path d="M19.6208 355.159V349.918C19.6208 348.528 20.1297 347.195 21.0356 346.212C21.9414 345.229 23.1701 344.677 24.4511 344.677C25.7322 344.677 26.9608 345.229 27.8667 346.212C28.7725 347.195 29.2814 348.528 29.2814 349.918V355.159H34.1117C35.3928 355.159 36.6214 355.711 37.5273 356.694C38.4331 357.676 38.942 359.009 38.942 360.399C38.942 361.789 38.4331 363.122 37.5273 364.105C36.6214 365.088 35.3928 365.64 34.1117 365.64H14.7905C13.5094 365.64 12.2808 365.088 11.375 364.105C10.4691 363.122 9.96022 361.789 9.96022 360.399C9.96022 359.009 10.4691 357.676 11.375 356.694C12.2808 355.711 13.5094 355.159 14.7905 355.159H19.6208ZM19.6208 386.604V381.363C19.6208 379.973 20.1297 378.64 21.0356 377.657C21.9414 376.674 23.1701 376.122 24.4511 376.122C25.7322 376.122 26.9608 376.674 27.8667 377.657C28.7725 378.64 29.2814 379.973 29.2814 381.363V386.604H34.1117C35.3928 386.604 36.6214 387.156 37.5273 388.139C38.4331 389.122 38.942 390.455 38.942 391.845C38.942 393.235 38.4331 394.568 37.5273 395.551C36.6214 396.533 35.3928 397.086 34.1117 397.086H14.7905C13.5094 397.086 12.2808 396.533 11.375 395.551C10.4691 394.568 9.96022 393.235 9.96022 391.845C9.96022 390.455 10.4691 389.122 11.375 388.139C12.2808 387.156 13.5094 386.604 14.7905 386.604H19.6208ZM19.6208 418.049V412.808C19.6208 411.418 20.1297 410.085 21.0356 409.102C21.9414 408.12 23.1701 407.567 24.4511 407.567C25.7322 407.567 26.9608 408.12 27.8667 409.102C28.7725 410.085 29.2814 411.418 29.2814 412.808V418.049H34.1117C35.3928 418.049 36.6214 418.601 37.5273 419.584C38.4331 420.567 38.942 421.9 38.942 423.29C38.942 424.68 38.4331 426.013 37.5273 426.996C36.6214 427.979 35.3928 428.531 34.1117 428.531H14.7905C13.5094 428.531 12.2808 427.979 11.375 426.996C10.4691 426.013 9.96022 424.68 9.96022 423.29C9.96022 421.9 10.4691 420.567 11.375 419.584C12.2808 418.601 13.5094 418.049 14.7905 418.049H19.6208Z" fill="#FFB74D"/>
<path fill-rule="evenodd" clip-rule="evenodd" d="M48.6027 412.808C48.6027 411.418 49.1116 410.085 50.0174 409.102C50.9233 408.12 52.1519 407.567 53.433 407.567H72.7542C74.0352 407.567 75.2638 408.12 76.1697 409.102C77.0756 410.085 77.5845 411.418 77.5845 412.808C77.5845 414.198 77.0756 415.531 76.1697 416.514C75.2638 417.497 74.0352 418.049 72.7542 418.049H53.433C52.1519 418.049 50.9233 417.497 50.0174 416.514C49.1116 415.531 48.6027 414.198 48.6027 412.808ZM48.6027 391.845C48.6027 390.455 49.1116 389.122 50.0174 388.139C50.9233 387.156 52.1519 386.604 53.433 386.604H101.736C103.017 386.604 104.246 387.156 105.152 388.139C106.057 389.122 106.566 390.455 106.566 391.845C106.566 393.235 106.057 394.568 105.152 395.551C104.246 396.533 103.017 397.086 101.736 397.086H53.433C52.1519 397.086 50.9233 396.533 50.0174 395.551C49.1116 394.568 48.6027 393.235 48.6027 391.845ZM48.6027 370.881C48.6027 369.491 49.1116 368.158 50.0174 367.175C50.9233 366.192 52.1519 365.64 53.433 365.64H101.736C103.017 365.64 104.246 366.192 105.152 367.175C106.057 368.158 106.566 369.491 106.566 370.881C106.566 372.271 106.057 373.604 105.152 374.587C104.246 375.57 103.017 376.122 101.736 376.122H53.433C52.1519 376.122 50.9233 375.57 50.0174 374.587C49.1116 373.604 48.6027 372.271 48.6027 370.881ZM48.6027 349.918C48.6027 348.528 49.1116 347.195 50.0174 346.212C50.9233 345.229 52.1519 344.677 53.433 344.677H101.736C103.017 344.677 104.246 345.229 105.152 346.212C106.057 347.195 106.566 348.528 106.566 349.918C106.566 351.308 106.057 352.641 105.152 353.623C104.246 354.606 103.017 355.159 101.736 355.159H53.433C52.1519 355.159 50.9233 354.606 50.0174 353.623C49.1116 352.641 48.6027 351.308 48.6027 349.918Z" fill="#FFB74D"/>
<g clip-path="url(#clip0)">
<path d="M266.558 112.681C249.314 112.681 214.891 125.166 214.891 149.949V168.584H318.225V149.949C318.225 125.166 283.802 112.681 266.558 112.681ZM351.163 36.6528C351.227 35.628 351.292 34.6031 351.292 33.485C351.292 32.367 351.227 31.3421 351.098 30.3172L355.877 24.9132C356.33 24.4474 356.394 23.5157 356.136 22.8635L351.615 11.5897C351.357 10.8444 350.711 10.658 350.259 10.8444L344.704 14.1054C343.542 12.801 342.25 11.7761 340.894 10.9375L340.054 2.27259C340.006 1.87945 339.862 1.5237 339.65 1.26803C339.437 1.01236 339.169 0.873186 338.892 0.875018H329.85C329.269 0.875018 328.817 1.43405 328.752 2.27259L327.913 10.9375C326.556 11.7761 325.265 12.8941 324.102 14.1054L318.483 10.8444C317.967 10.5648 317.385 10.8444 317.127 11.5897L312.606 22.8635C312.348 23.6088 312.412 24.4474 312.865 24.9132L317.644 30.3172C317.387 32.4128 317.387 34.5572 317.644 36.6528L312.865 42.0568C312.412 42.5226 312.348 43.4543 312.606 44.1065L317.127 55.3803C317.385 56.1257 318.031 56.312 318.483 56.1257L324.102 52.8647C325.265 54.1691 326.556 55.1939 327.913 56.0325L328.752 64.6974C328.817 65.536 329.269 66.095 329.85 66.095H338.892C339.473 66.095 339.925 65.536 339.99 64.6974L340.829 56.0325C342.186 55.1939 343.477 54.0759 344.64 52.8647L350.259 56.1257C350.775 56.4052 351.357 56.1257 351.615 55.3803L356.136 44.1065C356.394 43.3612 356.33 42.5226 355.877 42.0568L351.163 36.6528ZM334.371 45.1314C332.23 45.1314 330.176 43.9044 328.663 41.7203C327.149 39.5361 326.298 36.5738 326.298 33.485C326.298 30.3962 327.149 27.4339 328.663 25.2497C330.176 23.0656 332.23 21.8386 334.371 21.8386C336.512 21.8386 338.565 23.0656 340.079 25.2497C341.593 27.4339 342.444 30.3962 342.444 33.485C342.444 36.5738 341.593 39.5361 340.079 41.7203C338.565 43.9044 336.512 45.1314 334.371 45.1314ZM337.084 81.7478L333.854 73.6419C333.661 73.0829 333.208 72.8965 332.886 73.0829L328.881 75.4121C328.042 74.4804 327.138 73.7351 326.169 73.176L325.588 67.0267C325.521 66.7564 325.399 66.5219 325.237 66.3553C325.076 66.1886 324.882 66.0977 324.683 66.095H318.225C317.837 66.095 317.515 66.4677 317.45 67.1199L316.869 73.2692C315.9 73.8282 314.996 74.6668 314.156 75.5053L310.152 73.176C309.764 72.9897 309.377 73.176 309.183 73.7351L305.954 81.841C305.76 82.4 305.825 82.959 306.148 83.3317L309.571 87.1517C309.506 87.8971 309.442 88.6425 309.442 89.3879C309.442 90.1332 309.506 90.9718 309.571 91.624L306.148 95.444C305.825 95.8167 305.76 96.4689 305.954 96.9347L309.183 105.041C309.377 105.6 309.829 105.786 310.152 105.6L314.156 103.27C314.996 104.202 315.9 104.947 316.869 105.506L317.45 111.656C317.515 112.308 317.837 112.681 318.225 112.681H324.683C325.071 112.681 325.458 112.308 325.458 111.656L326.04 105.506C327.008 104.947 327.913 104.109 328.752 103.27L332.756 105.6C333.144 105.786 333.531 105.6 333.725 105.041L336.954 96.9347C337.148 96.3757 337.084 95.8167 336.761 95.444L333.402 91.624C333.467 90.8786 333.531 90.1332 333.531 89.3879C333.531 88.6425 333.467 87.8039 333.402 87.1517L336.825 83.3317C337.148 82.959 337.213 82.3068 337.084 81.7478ZM321.454 97.1211C318.483 97.1211 316.094 93.5806 316.094 89.3879C316.094 85.102 318.548 81.6546 321.454 81.6546C324.36 81.6546 326.815 85.1951 326.815 89.3879C326.815 93.6737 324.425 97.1211 321.454 97.1211ZM239.045 56.7779H294.135C295.879 56.7779 297.3 54.7281 297.3 52.2125V52.0261C297.3 50.8153 296.966 49.6541 296.373 48.7979C295.779 47.9417 294.974 47.4607 294.135 47.4607H292.391C292.391 33.6714 287.16 21.8386 279.475 15.3166V24.1679C279.475 26.7767 278.054 28.8264 276.245 28.8264C274.437 28.8264 273.016 26.7767 273.016 24.1679V11.4966C270.95 10.7512 268.818 10.1922 266.558 10.1922C264.297 10.1922 262.166 10.7512 260.099 11.4966V24.1679C260.099 26.7767 258.679 28.8264 256.87 28.8264C255.062 28.8264 253.641 26.7767 253.641 24.1679V15.3166C245.956 21.8386 240.724 33.6714 240.724 47.4607H239.045C238.629 47.4607 238.218 47.5788 237.834 47.8082C237.45 48.0377 237.101 48.374 236.807 48.7979C236.513 49.2218 236.28 49.7251 236.121 50.279C235.962 50.8329 235.88 51.4266 235.88 52.0261V52.3056C235.88 54.7281 237.301 56.7779 239.045 56.7779ZM266.558 94.0464C278.57 94.0464 288.581 82.1205 291.487 66.095H241.628C244.535 82.1205 254.545 94.0464 266.558 94.0464Z" fill="#FFB74D"/>
</g>
<path d="M309.881 386.604L292.878 411.76L285.15 400.021L277.421 411.76L260.418 386.604C231.05 394.989 231.05 411.76 231.05 444.463C231.05 444.463 254.236 453.687 280.513 453.687H289.787C316.064 452.849 339.249 444.463 339.249 444.463C339.249 411.76 339.249 394.989 309.881 386.604ZM285.15 392.474L272.784 386.604L285.15 400.021L297.515 386.604L285.15 392.474Z" fill="#FFB74D"/>
<path d="M285.15 320.359C270.465 320.359 261.964 335.453 264.283 352.224C266.601 368.995 274.33 380.734 285.15 380.734C295.969 380.734 303.698 368.995 306.017 352.224C308.335 334.614 299.834 320.359 285.15 320.359V320.359Z" fill="#FFB74D"/>
<g clip-path="url(#clip1)">
<path d="M416.342 93.7482C416.97 100.433 419.325 106.571 422.967 111.019C426.608 115.466 431.289 117.918 436.135 117.918C440.98 117.918 445.661 115.466 449.302 111.019C452.944 106.571 455.299 100.433 455.927 93.7482H416.342ZM524.191 149.655C524.193 150.221 524.114 150.78 523.959 151.303C523.805 151.826 523.578 152.301 523.291 152.702C523.005 153.102 522.664 153.421 522.289 153.638C521.914 153.856 521.512 153.968 521.106 153.969H463.433C461.739 153.969 460.342 152.034 460.342 149.655C460.346 148.519 460.673 147.432 461.253 146.631C461.832 145.831 462.616 145.382 463.433 145.385H521.103C522.809 145.385 524.191 147.294 524.191 149.655ZM460.679 156.167H523.857V168.584H460.679V156.167ZM529.502 93.7482C530.126 100.437 532.479 106.582 536.121 111.035C539.763 115.487 544.445 117.944 549.293 117.945C554.141 117.945 558.823 115.489 562.464 111.036C566.104 106.583 568.455 100.437 569.075 93.7482H529.502ZM567.987 85.1078L551.779 54.0468H560.444C562.552 54.0468 564.25 51.6426 564.25 48.6707C564.25 45.7246 562.549 43.3462 560.444 43.3462H514.543C513.181 38.1246 510.853 33.4944 507.796 29.9216C504.738 26.3489 501.058 23.9597 497.126 22.9944V6.23391C497.126 3.2534 495.407 0.875016 493.277 0.875016L492.919 0.930927L492.56 0.875016C492.054 0.873305 491.553 1.01084 491.086 1.27971C490.619 1.54857 490.194 1.94344 489.837 2.44158C489.48 2.93971 489.197 3.53125 489.005 4.18211C488.813 4.83298 488.715 5.53031 488.718 6.23391V22.9858C484.786 23.9504 481.106 26.3395 478.05 29.9124C474.993 33.4854 472.667 38.1159 471.307 43.3376H425.397C423.304 43.3376 421.597 45.716 421.597 48.6621C421.597 51.6383 423.304 54.0382 425.397 54.0382H433.666L417.455 85.0992H415.43V90.8365H456.848V85.0992H454.814L438.609 54.0468H476.228C476.228 52.834 476.324 51.6426 476.454 50.5029C476.587 49.9653 476.677 49.4191 476.677 48.8556C477.373 44.7696 478.866 41.0295 480.99 38.0456C483.114 35.0617 485.787 32.9494 488.718 31.9403V90.8494H488.557C488.226 113.008 480.649 132.331 469.409 143.191H516.441C505.198 132.331 497.627 113.008 497.278 90.8494H497.129V31.9403C500.059 32.9496 502.732 35.0622 504.856 38.046C506.979 41.0299 508.471 44.7699 509.167 48.8556C509.18 49.4191 509.263 49.9653 509.399 50.5029C509.523 51.6469 509.6 52.834 509.6 54.0468H546.827L530.615 85.1078H528.593V90.8451H570V85.1078H567.987V85.1078ZM434.488 85.1078H421.551L434.488 60.3132V85.1078ZM437.799 85.1078V60.3132L450.737 85.1078H437.799V85.1078ZM547.643 85.1078H534.699L547.643 60.3132V85.1078ZM550.938 85.1078V60.3132L563.891 85.1078H550.938ZM439.979 35.8713C439.95 37.2623 439.533 38.5831 438.816 39.5531C438.099 40.523 437.138 41.0657 436.138 41.0657C435.137 41.0657 434.177 40.523 433.459 39.5531C432.742 38.5831 432.325 37.2623 432.297 35.8713C432.297 32.9209 434.022 30.5124 436.145 30.5124C438.26 30.5081 439.979 32.9209 439.979 35.8713ZM553.136 35.5874C553.136 38.5593 551.417 40.9162 549.297 40.9162C548.792 40.9208 548.292 40.7861 547.825 40.5201C547.359 40.2541 546.935 39.862 546.578 39.3664C546.221 38.8708 545.938 38.2817 545.745 37.633C545.553 36.9844 545.455 36.2891 545.457 35.5874C545.436 34.8679 545.52 34.15 545.704 33.4767C545.887 32.8034 546.167 32.1887 546.525 31.6694C546.884 31.1501 547.314 30.737 547.79 30.4547C548.267 30.1725 548.779 30.027 549.297 30.027C549.814 30.027 550.326 30.1725 550.803 30.4547C551.279 30.737 551.709 31.1501 552.068 31.6694C552.426 32.1887 552.706 32.8034 552.889 33.4767C553.073 34.15 553.157 34.8679 553.136 35.5874V35.5874Z" fill="#FFB74D"/>
</g>
<path d="M507.206 449.495H478.224C475.662 449.492 473.207 448.387 471.396 446.422C469.584 444.456 468.566 441.792 468.563 439.013V412.808H444.412C441.85 412.806 439.395 411.7 437.583 409.735C435.772 407.77 434.754 405.106 434.751 402.327V370.881C434.754 368.102 435.772 365.438 437.583 363.473C439.395 361.507 441.85 360.402 444.412 360.399H468.563V334.195C468.566 331.416 469.584 328.751 471.396 326.786C473.207 324.821 475.662 323.716 478.224 323.713H507.206C509.767 323.716 512.223 324.821 514.034 326.786C515.845 328.751 516.864 331.416 516.866 334.195V360.399H541.018C543.579 360.402 546.035 361.507 547.846 363.473C549.657 365.438 550.676 368.102 550.678 370.881V402.327C550.675 405.105 549.655 407.769 547.845 409.734C546.034 411.699 543.579 412.804 541.018 412.808H516.866V439.013C516.862 441.792 515.843 444.455 514.032 446.42C512.222 448.385 509.767 449.49 507.206 449.495V449.495ZM444.412 370.881V402.327H478.224V439.013H507.206V402.327H541.018V370.881H507.206V334.195H478.224V370.881H444.412Z" fill="#FFB74D"/>
<path d="M140.982 6.11591H14.1865C9.65809 6.11591 5.12968 11.0292 5.12968 15.9426V126.494C5.12968 131.407 9.65809 136.321 14.1865 136.321H59.4706V146.147C59.4706 152.971 51.3122 155.974 41.357 155.974V163.343H113.812V155.971C103.854 155.971 95.6979 152.968 95.6979 146.145V136.318H140.982C145.51 136.318 150.039 131.405 150.039 126.491V15.9426C150.039 11.0292 145.51 6.11591 140.982 6.11591ZM145.209 126.494C145.209 128.509 142.837 131.08 140.982 131.08H14.1865C12.3293 131.08 9.95999 128.509 9.95999 126.494V116.667H145.209V126.494Z" fill="#FFB74D"/>
<path d="M77.5842 128.952C78.8354 128.952 79.8497 127.851 79.8497 126.494C79.8497 125.136 78.8354 124.036 77.5842 124.036C76.3331 124.036 75.3188 125.136 75.3188 126.494C75.3188 127.851 76.3331 128.952 77.5842 128.952Z" fill="#FFB74D"/>
<defs>
<clipPath id="clip0">
<rect width="154.57" height="167.709" fill="white" transform="translate(207.865 0.875)"/>
</clipPath>
<clipPath id="clip1">
<rect width="154.57" height="167.709" fill="white" transform="translate(415.43 0.875)"/>
</clipPath>
</defs>
</svg>
