<svg width="204" height="215" viewBox="0 0 204 215" fill="none" xmlns="http://www.w3.org/2000/svg">
<path d="M11.821 206.605C15.4229 210.72 30.2587 203.544 41.9686 197.791C50.7432 193.492 85.8572 178.304 103.311 170.426C108.024 168.301 114.878 165.525 119.813 158.684C124.192 152.595 135.807 126.736 112.419 100.542C88.6816 73.9467 64.2303 81.2896 55.0908 88.1141C49.7118 92.1285 45.3325 101.178 43.365 105.777C35.0506 125.214 23.1978 160.825 18.3742 174.825C14.8358 185.145 8.25091 202.524 11.821 206.605Z" fill="#FFC107"/>
<path d="M41.0167 111.631C41.2389 114.542 41.7942 119.275 43.6983 128.392C44.9994 134.647 47.1256 141.204 48.8551 145.536C54.0437 158.566 61.3267 163.819 68.705 168.034C81.2401 175.193 89.7607 176.531 89.7607 176.531L79.5423 180.93C79.5423 180.93 73.3541 179.575 64.9127 175.193C56.868 171.011 48.4902 163.936 42.3654 150.086C39.7156 144.081 38.1765 138.26 37.2879 133.644C36.1931 127.923 36.0186 124.678 36.0186 124.678L41.0167 111.631Z" fill="#FF8F00"/>
<path d="M28.4657 145.552C28.4657 145.552 29.7351 156.408 38.2399 170.107C48.2045 186.131 62.1201 188.757 62.1201 188.757L52.8695 192.771C52.8695 192.771 42.5399 189.443 32.7181 175.309C26.5934 166.494 24.8797 155.956 24.8797 155.956L28.4657 145.552Z" fill="#FF8F00"/>
<path d="M19.6595 171.279C19.6595 171.279 21.9761 180.646 27.0536 187.637C33.099 195.984 40.7946 198.409 40.7946 198.409L33.702 201.721C33.702 201.721 28.323 200.534 22.4363 192.672C17.9617 186.701 16.6923 179.843 16.6923 179.843L19.6595 171.279Z" fill="#FF8F00"/>
<path opacity="0.44" d="M15.8037 195.064C15.4863 194.311 15.4863 193.458 15.8196 192.722L56.2332 104.372L62.8816 130.717L20.3576 195.465C19.2151 197.272 16.6446 197.038 15.8037 195.064Z" fill="#FFFDE7"/>
<path d="M66.0868 139.565C84.9688 162.848 106.469 159.938 113.625 154.05C120.797 148.146 126.461 127.856 107.659 104.957C87.9518 80.9713 65.6425 87.8125 60.4857 92.9978C55.3289 98.183 48.7598 118.205 66.0868 139.565Z" fill="url(#paint0_linear)"/>
<path d="M130.936 149.148C124.05 143.06 120.385 144.147 115.466 146.305C109.119 149.082 99.1383 151.139 85.5878 146.305L89.6656 135.951C97.7103 138.811 103.534 137.423 108.563 134.295C115.037 130.281 123.891 124.778 137.664 136.971C143.408 142.056 149.295 145.435 153.61 143.896C156.752 142.792 158.418 137.858 159.259 133.927C159.338 133.576 159.465 132.572 159.561 131.686C160.322 125.547 161.592 112.3 170.953 105.525C180.965 98.2827 191.485 98.2827 191.485 98.2827L193.389 118.221C188.55 117.468 185.186 118.505 182.346 120.161C171.651 126.434 180.965 150.52 164.321 158.616C148.311 166.461 135.22 152.929 130.936 149.148Z" fill="#03A9F4"/>
<path d="M72.0371 123.724L65.1507 117.218C77.7969 102.331 74.4648 91.3917 72.0371 83.4298C71.5452 81.8241 71.0851 80.302 70.7836 78.8467C69.7046 73.6949 69.4825 69.2122 69.8157 65.2982C64.9603 58.9254 62.8183 52.2514 62.6755 51.7998C59.7242 42.3827 61.9456 33.1998 67.0389 24.5856C77.3368 7.10632 95.9807 7.10632 95.9807 7.10632L102.201 24.6525C97.4723 24.4518 81.97 24.7027 77.2098 32.6144C71.1962 42.5835 75.1471 48.7388 75.4327 49.4414C76.591 47.8523 77.7652 46.5811 78.8124 45.5942C86.4128 38.4854 93.0136 37.4651 97.2184 37.8666C101.947 38.3182 106.231 40.8272 109.293 44.9419C112.641 49.4581 114.022 55.3291 112.959 60.6649C111.927 65.8669 108.643 70.266 103.708 73.0593C95.0922 77.9435 87.9202 77.2744 83.1124 75.5851C83.1442 75.7021 83.16 75.836 83.1918 75.953C83.3663 76.7894 83.7154 77.9602 84.1279 79.3151C86.9364 88.4813 92.1567 103.033 72.0371 123.724ZM83.6995 60.9493C84.6198 61.6518 85.5877 62.2372 86.5873 62.6554C89.9195 64.0604 93.5531 63.5921 97.6785 61.2504C100.106 59.8788 100.392 58.4068 100.487 57.9218C100.773 56.4665 100.297 54.6099 99.2652 53.2216C98.3608 52.0005 97.3136 51.3649 96.0601 51.2311C93.68 51.0137 90.4589 52.6027 87.2379 55.6302C85.6988 57.0854 84.5246 58.8752 83.6995 60.9493Z" fill="#F44336"/>
<path d="M99.5982 126.451L89.7447 126.167C89.7447 126.167 94.4255 98.3004 109.579 93.617C112.419 92.7472 115.529 91.8607 118.655 91.3756C120.511 91.0745 123.447 90.6229 124.89 90.0542C125.224 87.4281 124.176 84.0828 123.002 80.2859C122.082 77.342 121.13 74.3145 120.622 71.0026C119.638 64.5461 121.273 58.8423 125.224 54.9116C130.047 50.1445 137.838 48.6224 146.629 50.7299C151.643 51.9342 155.34 54.5269 158.592 56.8017C163.242 60.0634 165.955 61.7193 171.635 57.6882C178.506 52.804 169.525 33.6855 164.749 22.6459L182.568 14.8179C184.964 20.3377 196.531 48.7395 188.899 64.9476C186.328 70.4004 181.901 74.0134 176.094 75.3682C163.464 78.3456 156.07 73.1603 150.675 69.3801C148.12 67.5904 145.883 66.1853 143.455 65.4494C126.588 60.3812 150.135 86.5416 139.108 98.3004C132.491 105.342 116.322 107.199 115.275 107.467C104.866 110.109 99.5982 126.451 99.5982 126.451Z" fill="#F48FB1"/>
<path d="M69.7998 65.2984C69.4983 68.9783 69.3555 71.1695 70.2599 75.9533C74.6234 79.3321 84.1278 79.3321 84.1278 79.3321C83.7153 77.9773 83.3503 76.8064 83.1917 75.97C83.1599 75.853 83.1441 75.7192 83.1123 75.6021C73.4492 70.5171 69.7998 65.2984 69.7998 65.2984Z" fill="#C92B27"/>
<path d="M50.0292 81.7738L33.6226 73.2934L41.7942 60.8488L54.6625 69.831L50.0292 81.7738Z" fill="#FFC107"/>
<path d="M25.8476 58.2892C17.4697 57.1016 8.9332 49.608 7.99704 48.755L16.2321 38.5685C18.7232 40.7931 24.007 44.5232 27.5454 45.025L25.8476 58.2892Z" fill="#FB8C00"/>
<path d="M40.6358 35.9932L28.5768 31.8282C29.9573 27.379 30.3222 22.5784 29.6082 17.9451L42.1432 15.8209C43.1746 22.545 42.651 29.52 40.6358 35.9932Z" fill="#03A9F4"/>
<path d="M115.946 26.0496L128.346 23.1894L131.928 40.4446L119.528 43.3048L115.946 26.0496Z" fill="#FB8C00"/>
<path d="M146.708 30.1392L137.981 20.421C142.551 15.8546 143.598 9.88319 143.598 9.81628L156.133 11.974C155.974 13.0278 154.372 22.4951 146.708 30.1392Z" fill="#FFC107"/>
<path d="M151.557 81.6761L162.644 78.0247L166.431 90.7971L155.345 94.4485L151.557 81.6761Z" fill="#FB8C00"/>
<path d="M154.785 189.476L142.17 187.904C142.71 183.17 139.361 177.366 138.441 176.078L148.596 168.05C149.358 169.103 155.975 178.755 154.785 189.476Z" fill="#F44336"/>
<path d="M190.993 172.515C186.249 171.762 181.394 171.461 176.602 171.645L176.174 158.264C181.743 158.063 187.375 158.398 192.881 159.284L190.993 172.515Z" fill="#FB8C00"/>
<path d="M173.927 190.935L182.844 181.413L195.119 194.187L186.2 203.709L173.927 190.935Z" fill="#F48FB1"/>
<path d="M147.722 106.347L156.893 117.402L146.407 127.07L137.235 116.015L147.722 106.347Z" fill="#F44336"/>
<defs>
<linearGradient id="paint0_linear" x1="118.026" y1="103.852" x2="69.5087" y2="131.466" gradientUnits="userSpaceOnUse">
<stop offset="0.024" stop-color="#8F4700"/>
<stop offset="1" stop-color="#703E2D"/>
</linearGradient>
</defs>
</svg>
