<svg width="250" height="274" viewBox="0 0 250 274" fill="none" xmlns="http://www.w3.org/2000/svg">
<path d="M217.017 228.042C179.701 228.042 130.487 250.846 130.487 250.846V125.423C130.487 125.423 179.16 102.619 227.833 102.619L217.017 228.042Z" fill="#5C6BC0"/>
<path d="M43.9566 228.042C81.2727 228.042 130.487 250.846 130.487 250.846V125.423C130.487 125.423 81.8135 102.619 33.1404 102.619L43.9566 228.042Z" fill="#7986CB"/>
<path d="M130.487 114.021C154.381 114.021 173.751 93.6013 173.751 68.4125C173.751 43.2237 154.381 22.8041 130.487 22.8041C106.592 22.8041 87.2217 43.2237 87.2217 68.4125C87.2217 93.6013 106.592 114.021 130.487 114.021Z" fill="#FFB74D"/>
<path d="M222.425 182.433H227.833C231.078 182.433 233.241 180.153 233.241 176.732V153.928C233.241 150.508 231.078 148.227 227.833 148.227H222.425C213.231 148.227 206.2 155.639 206.2 165.33C206.2 175.022 213.231 182.433 222.425 182.433Z" fill="#FFB74D"/>
<path d="M38.5485 148.227H33.1404C29.8955 148.227 27.7323 150.508 27.7323 153.928V176.732C27.7323 180.153 29.8955 182.433 33.1404 182.433H38.5485C47.7423 182.433 54.7729 175.022 54.7729 165.33C54.7729 155.639 47.7423 148.227 38.5485 148.227Z" fill="#FFB74D"/>
</svg>
